<svg id="visual" viewBox="0 0 960 540" width="960" height="540" xmlns="http://www.w3.org/2000/svg" xmlns:xlink="http://www.w3.org/1999/xlink" version="1.1"><path d="M0 502L14.5 504.2C29 506.3 58 510.7 87.2 509.3C116.3 508 145.7 501 174.8 497.7C204 494.3 233 494.7 262 496.8C291 499 320 503 349 503.5C378 504 407 501 436.2 501.7C465.3 502.3 494.7 506.7 523.8 507.8C553 509 582 507 611 507.8C640 508.7 669 512.3 698 511C727 509.7 756 503.3 785.2 503.8C814.3 504.3 843.7 511.7 872.8 512.2C902 512.7 931 506.3 945.5 503.2L960 500L960 541L945.5 541C931 541 902 541 872.8 541C843.7 541 814.3 541 785.2 541C756 541 727 541 698 541C669 541 640 541 611 541C582 541 553 541 523.8 541C494.7 541 465.3 541 436.2 541C407 541 378 541 349 541C320 541 291 541 262 541C233 541 204 541 174.8 541C145.7 541 116.3 541 87.2 541C58 541 29 541 14.5 541L0 541Z" fill="#f57722"></path><path d="M0 503L14.5 505.5C29 508 58 513 87.2 514.7C116.3 516.3 145.7 514.7 174.8 515.7C204 516.7 233 520.3 262 521.8C291 523.3 320 522.7 349 520.7C378 518.7 407 515.3 436.2 512.2C465.3 509 494.7 506 523.8 506C553 506 582 509 611 511.7C640 514.3 669 516.7 698 517.2C727 517.7 756 516.3 785.2 516.7C814.3 517 843.7 519 872.8 517.8C902 516.7 931 512.3 945.5 510.2L960 508L960 541L945.5 541C931 541 902 541 872.8 541C843.7 541 814.3 541 785.2 541C756 541 727 541 698 541C669 541 640 541 611 541C582 541 553 541 523.8 541C494.7 541 465.3 541 436.2 541C407 541 378 541 349 541C320 541 291 541 262 541C233 541 204 541 174.8 541C145.7 541 116.3 541 87.2 541C58 541 29 541 14.5 541L0 541Z" fill="#f37c2b"></path><path d="M0 522L14.5 522.2C29 522.3 58 522.7 87.2 523.5C116.3 524.3 145.7 525.7 174.8 523.7C204 521.7 233 516.3 262 515.5C291 514.7 320 518.3 349 520.2C378 522 407 522 436.2 519.7C465.3 517.3 494.7 512.7 523.8 513C553 513.3 582 518.7 611 518.5C640 518.3 669 512.7 698 510.7C727 508.7 756 510.3 785.2 513.5C814.3 516.7 843.7 521.3 872.8 523.5C902 525.7 931 525.3 945.5 525.2L960 525L960 541L945.5 541C931 541 902 541 872.8 541C843.7 541 814.3 541 785.2 541C756 541 727 541 698 541C669 541 640 541 611 541C582 541 553 541 523.8 541C494.7 541 465.3 541 436.2 541C407 541 378 541 349 541C320 541 291 541 262 541C233 541 204 541 174.8 541C145.7 541 116.3 541 87.2 541C58 541 29 541 14.5 541L0 541Z" fill="#f28034"></path><path d="M0 516L14.5 515.5C29 515 58 514 87.2 515.3C116.3 516.7 145.7 520.3 174.8 522.5C204 524.7 233 525.3 262 524.7C291 524 320 522 349 521.7C378 521.3 407 522.7 436.2 521.7C465.3 520.7 494.7 517.3 523.8 518C553 518.7 582 523.3 611 525.5C640 527.7 669 527.3 698 526.5C727 525.7 756 524.3 785.2 522.3C814.3 520.3 843.7 517.7 872.8 518.8C902 520 931 525 945.5 527.5L960 530L960 541L945.5 541C931 541 902 541 872.8 541C843.7 541 814.3 541 785.2 541C756 541 727 541 698 541C669 541 640 541 611 541C582 541 553 541 523.8 541C494.7 541 465.3 541 436.2 541C407 541 378 541 349 541C320 541 291 541 262 541C233 541 204 541 174.8 541C145.7 541 116.3 541 87.2 541C58 541 29 541 14.5 541L0 541Z" fill="#f0843c"></path><path d="M0 527L14.5 526.3C29 525.7 58 524.3 87.2 523.3C116.3 522.3 145.7 521.7 174.8 521.7C204 521.7 233 522.3 262 523.3C291 524.3 320 525.7 349 525.3C378 525 407 523 436.2 523.8C465.3 524.7 494.7 528.3 523.8 529.5C553 530.7 582 529.3 611 528.8C640 528.3 669 528.7 698 528.3C727 528 756 527 785.2 525.3C814.3 523.7 843.7 521.3 872.8 520.5C902 519.7 931 520.3 945.5 520.7L960 521L960 541L945.5 541C931 541 902 541 872.8 541C843.7 541 814.3 541 785.2 541C756 541 727 541 698 541C669 541 640 541 611 541C582 541 553 541 523.8 541C494.7 541 465.3 541 436.2 541C407 541 378 541 349 541C320 541 291 541 262 541C233 541 204 541 174.8 541C145.7 541 116.3 541 87.2 541C58 541 29 541 14.5 541L0 541Z" fill="#ee8844"></path><path d="M0 530L14.5 529.8C29 529.7 58 529.3 87.2 529.5C116.3 529.7 145.7 530.3 174.8 530.2C204 530 233 529 262 528.2C291 527.3 320 526.7 349 527.5C378 528.3 407 530.7 436.2 532C465.3 533.3 494.7 533.7 523.8 533.3C553 533 582 532 611 530.7C640 529.3 669 527.7 698 528.3C727 529 756 532 785.2 533C814.3 534 843.7 533 872.8 532.8C902 532.7 931 533.3 945.5 533.7L960 534L960 541L945.5 541C931 541 902 541 872.8 541C843.7 541 814.3 541 785.2 541C756 541 727 541 698 541C669 541 640 541 611 541C582 541 553 541 523.8 541C494.7 541 465.3 541 436.2 541C407 541 378 541 349 541C320 541 291 541 262 541C233 541 204 541 174.8 541C145.7 541 116.3 541 87.2 541C58 541 29 541 14.5 541L0 541Z" fill="#ec8c4c"></path></svg>