<svg id="visual" viewBox="0 0 960 540" width="960" height="540" xmlns="http://www.w3.org/2000/svg" xmlns:xlink="http://www.w3.org/1999/xlink" version="1.1"><rect x="0" y="0" width="960" height="540" fill="#001220"></rect><path d="M0 464L11.5 461.5C23 459 46 454 68.8 453.5C91.7 453 114.3 457 137.2 456.5C160 456 183 451 205.8 450.8C228.7 450.7 251.3 455.3 274.2 455.3C297 455.3 320 450.7 342.8 453.2C365.7 455.7 388.3 465.3 411.2 467.8C434 470.3 457 465.7 480 466.8C503 468 526 475 548.8 475.3C571.7 475.7 594.3 469.3 617.2 464C640 458.7 663 454.3 685.8 454.7C708.7 455 731.3 460 754.2 465C777 470 800 475 822.8 471.8C845.7 468.7 868.3 457.3 891.2 457C914 456.7 937 467.3 948.5 472.7L960 478L960 541L948.5 541C937 541 914 541 891.2 541C868.3 541 845.7 541 822.8 541C800 541 777 541 754.2 541C731.3 541 708.7 541 685.8 541C663 541 640 541 617.2 541C594.3 541 571.7 541 548.8 541C526 541 503 541 480 541C457 541 434 541 411.2 541C388.3 541 365.7 541 342.8 541C320 541 297 541 274.2 541C251.3 541 228.7 541 205.8 541C183 541 160 541 137.2 541C114.3 541 91.7 541 68.8 541C46 541 23 541 11.5 541L0 541Z" fill="#f57722"></path><path d="M0 461L11.5 463.8C23 466.7 46 472.3 68.8 473.2C91.7 474 114.3 470 137.2 470.5C160 471 183 476 205.8 477.3C228.7 478.7 251.3 476.3 274.2 472.2C297 468 320 462 342.8 462.5C365.7 463 388.3 470 411.2 470.7C434 471.3 457 465.7 480 465.8C503 466 526 472 548.8 474.2C571.7 476.3 594.3 474.7 617.2 476.2C640 477.7 663 482.3 685.8 481.5C708.7 480.7 731.3 474.3 754.2 472.2C777 470 800 472 822.8 472C845.7 472 868.3 470 891.2 470C914 470 937 472 948.5 473L960 474L960 541L948.5 541C937 541 914 541 891.2 541C868.3 541 845.7 541 822.8 541C800 541 777 541 754.2 541C731.3 541 708.7 541 685.8 541C663 541 640 541 617.2 541C594.3 541 571.7 541 548.8 541C526 541 503 541 480 541C457 541 434 541 411.2 541C388.3 541 365.7 541 342.8 541C320 541 297 541 274.2 541C251.3 541 228.7 541 205.8 541C183 541 160 541 137.2 541C114.3 541 91.7 541 68.8 541C46 541 23 541 11.5 541L0 541Z" fill="#f47a29"></path><path d="M0 498L11.5 494.7C23 491.3 46 484.7 68.8 483.5C91.7 482.3 114.3 486.7 137.2 487.3C160 488 183 485 205.8 481.7C228.7 478.3 251.3 474.7 274.2 476.7C297 478.7 320 486.3 342.8 490.3C365.7 494.3 388.3 494.7 411.2 493.7C434 492.7 457 490.3 480 487.2C503 484 526 480 548.8 477.3C571.7 474.7 594.3 473.3 617.2 476.7C640 480 663 488 685.8 488.5C708.7 489 731.3 482 754.2 478.8C777 475.7 800 476.3 822.8 475.7C845.7 475 868.3 473 891.2 475.8C914 478.7 937 486.3 948.5 490.2L960 494L960 541L948.5 541C937 541 914 541 891.2 541C868.3 541 845.7 541 822.8 541C800 541 777 541 754.2 541C731.3 541 708.7 541 685.8 541C663 541 640 541 617.2 541C594.3 541 571.7 541 548.8 541C526 541 503 541 480 541C457 541 434 541 411.2 541C388.3 541 365.7 541 342.8 541C320 541 297 541 274.2 541C251.3 541 228.7 541 205.8 541C183 541 160 541 137.2 541C114.3 541 91.7 541 68.8 541C46 541 23 541 11.5 541L0 541Z" fill="#f37d2f"></path><path d="M0 479L11.5 480.8C23 482.7 46 486.3 68.8 486.8C91.7 487.3 114.3 484.7 137.2 486.5C160 488.3 183 494.7 205.8 494.2C228.7 493.7 251.3 486.3 274.2 484C297 481.7 320 484.3 342.8 484.8C365.7 485.3 388.3 483.7 411.2 485.2C434 486.7 457 491.3 480 492.5C503 493.7 526 491.3 548.8 492.3C571.7 493.3 594.3 497.7 617.2 496.3C640 495 663 488 685.8 484C708.7 480 731.3 479 754.2 480C777 481 800 484 822.8 488.2C845.7 492.3 868.3 497.7 891.2 497.3C914 497 937 491 948.5 488L960 485L960 541L948.5 541C937 541 914 541 891.2 541C868.3 541 845.7 541 822.8 541C800 541 777 541 754.2 541C731.3 541 708.7 541 685.8 541C663 541 640 541 617.2 541C594.3 541 571.7 541 548.8 541C526 541 503 541 480 541C457 541 434 541 411.2 541C388.3 541 365.7 541 342.8 541C320 541 297 541 274.2 541C251.3 541 228.7 541 205.8 541C183 541 160 541 137.2 541C114.3 541 91.7 541 68.8 541C46 541 23 541 11.5 541L0 541Z" fill="#f28035"></path><path d="M0 510L11.5 509.3C23 508.7 46 507.3 68.8 506.7C91.7 506 114.3 506 137.2 506.3C160 506.7 183 507.3 205.8 504.7C228.7 502 251.3 496 274.2 496.7C297 497.3 320 504.7 342.8 505.2C365.7 505.7 388.3 499.3 411.2 496.8C434 494.3 457 495.7 480 496.3C503 497 526 497 548.8 498.7C571.7 500.3 594.3 503.7 617.2 504.7C640 505.7 663 504.3 685.8 504.5C708.7 504.7 731.3 506.3 754.2 507C777 507.7 800 507.3 822.8 504.3C845.7 501.3 868.3 495.7 891.2 496.5C914 497.3 937 504.7 948.5 508.3L960 512L960 541L948.5 541C937 541 914 541 891.2 541C868.3 541 845.7 541 822.8 541C800 541 777 541 754.2 541C731.3 541 708.7 541 685.8 541C663 541 640 541 617.2 541C594.3 541 571.7 541 548.8 541C526 541 503 541 480 541C457 541 434 541 411.2 541C388.3 541 365.7 541 342.8 541C320 541 297 541 274.2 541C251.3 541 228.7 541 205.8 541C183 541 160 541 137.2 541C114.3 541 91.7 541 68.8 541C46 541 23 541 11.5 541L0 541Z" fill="#f0833b"></path><path d="M0 506L11.5 505.3C23 504.7 46 503.3 68.8 504.3C91.7 505.3 114.3 508.7 137.2 510.8C160 513 183 514 205.8 513.5C228.7 513 251.3 511 274.2 511.5C297 512 320 515 342.8 514.5C365.7 514 388.3 510 411.2 509C434 508 457 510 480 508.8C503 507.7 526 503.3 548.8 503.2C571.7 503 594.3 507 617.2 510.3C640 513.7 663 516.3 685.8 516.2C708.7 516 731.3 513 754.2 511C777 509 800 508 822.8 507.7C845.7 507.3 868.3 507.7 891.2 509.2C914 510.7 937 513.3 948.5 514.7L960 516L960 541L948.5 541C937 541 914 541 891.2 541C868.3 541 845.7 541 822.8 541C800 541 777 541 754.2 541C731.3 541 708.7 541 685.8 541C663 541 640 541 617.2 541C594.3 541 571.7 541 548.8 541C526 541 503 541 480 541C457 541 434 541 411.2 541C388.3 541 365.7 541 342.8 541C320 541 297 541 274.2 541C251.3 541 228.7 541 205.8 541C183 541 160 541 137.2 541C114.3 541 91.7 541 68.8 541C46 541 23 541 11.5 541L0 541Z" fill="#ef8641"></path><path d="M0 516L11.5 517C23 518 46 520 68.8 520.2C91.7 520.3 114.3 518.7 137.2 519C160 519.3 183 521.7 205.8 523C228.7 524.3 251.3 524.7 274.2 523.5C297 522.3 320 519.7 342.8 517.7C365.7 515.7 388.3 514.3 411.2 513.3C434 512.3 457 511.7 480 511.8C503 512 526 513 548.8 513.3C571.7 513.7 594.3 513.3 617.2 513.5C640 513.7 663 514.3 685.8 514.5C708.7 514.7 731.3 514.3 754.2 515.5C777 516.7 800 519.3 822.8 520.3C845.7 521.3 868.3 520.7 891.2 520C914 519.3 937 518.7 948.5 518.3L960 518L960 541L948.5 541C937 541 914 541 891.2 541C868.3 541 845.7 541 822.8 541C800 541 777 541 754.2 541C731.3 541 708.7 541 685.8 541C663 541 640 541 617.2 541C594.3 541 571.7 541 548.8 541C526 541 503 541 480 541C457 541 434 541 411.2 541C388.3 541 365.7 541 342.8 541C320 541 297 541 274.2 541C251.3 541 228.7 541 205.8 541C183 541 160 541 137.2 541C114.3 541 91.7 541 68.8 541C46 541 23 541 11.5 541L0 541Z" fill="#ed8946"></path><path d="M0 534L11.5 532.3C23 530.7 46 527.3 68.8 526.3C91.7 525.3 114.3 526.7 137.2 527.2C160 527.7 183 527.3 205.8 528C228.7 528.7 251.3 530.3 274.2 531C297 531.7 320 531.3 342.8 531.5C365.7 531.7 388.3 532.3 411.2 531.8C434 531.3 457 529.7 480 528.5C503 527.3 526 526.7 548.8 526.7C571.7 526.7 594.3 527.3 617.2 528.7C640 530 663 532 685.8 532.8C708.7 533.7 731.3 533.3 754.2 532.2C777 531 800 529 822.8 527.7C845.7 526.3 868.3 525.7 891.2 524.7C914 523.7 937 522.3 948.5 521.7L960 521L960 541L948.5 541C937 541 914 541 891.2 541C868.3 541 845.7 541 822.8 541C800 541 777 541 754.2 541C731.3 541 708.7 541 685.8 541C663 541 640 541 617.2 541C594.3 541 571.7 541 548.8 541C526 541 503 541 480 541C457 541 434 541 411.2 541C388.3 541 365.7 541 342.8 541C320 541 297 541 274.2 541C251.3 541 228.7 541 205.8 541C183 541 160 541 137.2 541C114.3 541 91.7 541 68.8 541C46 541 23 541 11.5 541L0 541Z" fill="#ec8c4c"></path></svg>