<svg width="26" height="25" viewBox="0 0 26 25" fill="none" xmlns="http://www.w3.org/2000/svg">
<path d="M6.32189 2.8227C6.28659 1.2204 5.14078 0 3.28016 0C1.41954 0 0.203125 1.2204 0.203125 2.8227C0.203125 4.3918 1.38358 5.64735 3.20956 5.64735H3.24431C5.14078 5.64735 6.32189 4.3918 6.32189 2.8227Z" fill="#ec8c4c"/>
<path d="M5.96368 7.87793H0.52475V24.2196H5.96368V7.87793Z" fill="#ec8c4c"/>
<path d="M19.3163 7.49414C22.8953 7.49414 25.5785 9.83028 25.5785 14.8497L25.5783 24.2196H20.1396V15.4768C20.1396 13.2808 19.3526 11.7823 17.3836 11.7823C15.881 11.7823 14.986 12.7925 14.5929 13.7682C14.4491 14.1179 14.4138 14.6051 14.4138 15.0935V24.22H8.97424C8.97424 24.22 9.04593 9.41173 8.97424 7.87831H14.4138V10.193C15.1357 9.08027 16.4286 7.49414 19.3163 7.49414Z" fill="#ec8c4c"/>
</svg>
