<svg id="visual" viewBox="0 0 960 540" width="960" height="540" xmlns="http://www.w3.org/2000/svg" xmlns:xlink="http://www.w3.org/1999/xlink" version="1.1"><path d="M0 62L22.8 63.5C45.7 65 91.3 68 137 70.8C182.7 73.7 228.3 76.3 274 75.2C319.7 74 365.3 69 411.2 68.5C457 68 503 72 548.8 71C594.7 70 640.3 64 686 66.2C731.7 68.3 777.3 78.7 823 80.8C868.7 83 914.3 77 937.2 74L960 71L960 0L937.2 0C914.3 0 868.7 0 823 0C777.3 0 731.7 0 686 0C640.3 0 594.7 0 548.8 0C503 0 457 0 411.2 0C365.3 0 319.7 0 274 0C228.3 0 182.7 0 137 0C91.3 0 45.7 0 22.8 0L0 0Z" fill="#f57722"></path><path d="M0 64L22.8 65.5C45.7 67 91.3 70 137 67.5C182.7 65 228.3 57 274 54.5C319.7 52 365.3 55 411.2 54.2C457 53.3 503 48.7 548.8 47C594.7 45.3 640.3 46.7 686 48C731.7 49.3 777.3 50.7 823 51.5C868.7 52.3 914.3 52.7 937.2 52.8L960 53L960 0L937.2 0C914.3 0 868.7 0 823 0C777.3 0 731.7 0 686 0C640.3 0 594.7 0 548.8 0C503 0 457 0 411.2 0C365.3 0 319.7 0 274 0C228.3 0 182.7 0 137 0C91.3 0 45.7 0 22.8 0L0 0Z" fill="#f37d2e"></path><path d="M0 49L22.8 49.5C45.7 50 91.3 51 137 49.5C182.7 48 228.3 44 274 44.8C319.7 45.7 365.3 51.3 411.2 53.2C457 55 503 53 548.8 48.7C594.7 44.3 640.3 37.7 686 38.2C731.7 38.7 777.3 46.3 823 50.7C868.7 55 914.3 56 937.2 56.5L960 57L960 0L937.2 0C914.3 0 868.7 0 823 0C777.3 0 731.7 0 686 0C640.3 0 594.7 0 548.8 0C503 0 457 0 411.2 0C365.3 0 319.7 0 274 0C228.3 0 182.7 0 137 0C91.3 0 45.7 0 22.8 0L0 0Z" fill="#f18238"></path><path d="M0 25L22.8 27C45.7 29 91.3 33 137 34.7C182.7 36.3 228.3 35.7 274 35.3C319.7 35 365.3 35 411.2 33C457 31 503 27 548.8 25.5C594.7 24 640.3 25 686 27.2C731.7 29.3 777.3 32.7 823 32.3C868.7 32 914.3 28 937.2 26L960 24L960 0L937.2 0C914.3 0 868.7 0 823 0C777.3 0 731.7 0 686 0C640.3 0 594.7 0 548.8 0C503 0 457 0 411.2 0C365.3 0 319.7 0 274 0C228.3 0 182.7 0 137 0C91.3 0 45.7 0 22.8 0L0 0Z" fill="#ef8742"></path><path d="M0 25L22.8 22.8C45.7 20.7 91.3 16.3 137 16.2C182.7 16 228.3 20 274 21.5C319.7 23 365.3 22 411.2 21.5C457 21 503 21 548.8 20.2C594.7 19.3 640.3 17.7 686 15.8C731.7 14 777.3 12 823 10.7C868.7 9.3 914.3 8.7 937.2 8.3L960 8L960 0L937.2 0C914.3 0 868.7 0 823 0C777.3 0 731.7 0 686 0C640.3 0 594.7 0 548.8 0C503 0 457 0 411.2 0C365.3 0 319.7 0 274 0C228.3 0 182.7 0 137 0C91.3 0 45.7 0 22.8 0L0 0Z" fill="#ec8c4c"></path></svg>