<svg id="visual" viewBox="0 0 900 600" width="900" height="600" xmlns="http://www.w3.org/2000/svg" xmlns:xlink="http://www.w3.org/1999/xlink" version="1.1"><g transform="translate(444.0672933698735 281.011982263234)"><path d="M113.1 -161.4C158.5 -146.7 215.7 -135.7 243 -103C270.4 -70.4 267.8 -16.1 251.3 29.8C234.8 75.6 204.3 113.1 169.9 140C135.4 166.9 97 183.3 55.3 201.6C13.5 220 -31.6 240.5 -72.9 234.6C-114.3 228.8 -152 196.6 -185.3 159.7C-218.5 122.8 -247.3 81.3 -251.3 37.6C-255.4 -6.1 -234.6 -51.8 -207.2 -87.5C-179.8 -123.1 -145.9 -148.6 -110.2 -167.9C-74.6 -187.1 -37.3 -200 -1.8 -197.3C33.8 -194.6 67.6 -176.2 113.1 -161.4" fill="none" stroke="#FFFFFF" stroke-width="18"></path></g></svg>