<svg id="visual" viewBox="0 0 900 600" width="900" height="600" xmlns="http://www.w3.org/2000/svg" xmlns:xlink="http://www.w3.org/1999/xlink" version="1.1"><g transform="translate(464.23764720833947 309.46655056754844)"><path d="M98.9 -170.9C128.6 -134.8 153.5 -108.1 181.5 -74.7C209.6 -41.2 240.9 -1 236 34C231.1 69.1 190 99.1 157.3 135.7C124.6 172.4 100.3 215.7 63.1 236.4C25.9 257.1 -24.2 255.2 -74.7 244.8C-125.2 234.4 -175.9 215.4 -212.7 180.3C-249.5 145.1 -272.2 93.8 -262.9 48C-253.5 2.3 -212 -37.8 -189.2 -85.8C-166.3 -133.8 -162.1 -189.7 -133.7 -226.4C-105.2 -263.1 -52.6 -280.5 -9 -266.5C34.6 -252.5 69.2 -207 98.9 -170.9" fill="none" stroke="#FFFFFF" stroke-width="18"></path></g></svg>