<svg id="visual" viewBox="0 0 900 600" width="900" height="600" xmlns="http://www.w3.org/2000/svg" xmlns:xlink="http://www.w3.org/1999/xlink" version="1.1"><g transform="translate(473.3124841540341 326.7701853899796)"><path d="M106.9 -181.8C137.4 -146.7 160.1 -115.1 175.5 -80.4C190.8 -45.8 198.9 -8 206 38.5C213.2 85.1 219.6 140.5 194.9 168.9C170.3 197.4 114.6 199 66.7 201C18.9 203.1 -21.1 205.7 -63.3 200.3C-105.5 194.9 -149.9 181.6 -189.2 154C-228.5 126.4 -262.7 84.6 -258.8 43.5C-254.8 2.5 -212.7 -37.7 -183.3 -76.1C-153.9 -114.5 -137.2 -151 -108.8 -187C-80.4 -223.1 -40.2 -258.5 -1 -257C38.2 -255.4 76.4 -216.9 106.9 -181.8" fill="none" stroke="#FFFFFF" stroke-width="18"></path></g></svg>