<svg width="23" height="18" viewBox="0 0 23 18" fill="none" xmlns="http://www.w3.org/2000/svg">
<path d="M22.3292 3.01909C22.2328 2.64206 22.0482 2.29335 21.7905 2.00172C21.5329 1.71009 21.2096 1.4839 20.8473 1.34182C17.3414 -0.0122689 11.7614 3.89039e-06 11.4545 3.89039e-06C11.1477 3.89039e-06 5.56773 -0.0122689 2.06182 1.34182C1.69953 1.4839 1.37622 1.71009 1.11855 2.00172C0.860886 2.29335 0.676253 2.64206 0.579886 3.01909C0.315 4.03978 0 5.90523 0 9C0 12.0948 0.315 13.9602 0.579886 14.9809C0.676109 15.3581 0.860676 15.707 1.11835 15.9989C1.37602 16.2907 1.69941 16.517 2.06182 16.6592C5.42045 17.955 10.6773 18 11.387 18H11.522C12.2318 18 17.4917 17.955 20.8473 16.6592C21.2097 16.517 21.5331 16.2907 21.7907 15.9989C22.0484 15.707 22.233 15.3581 22.3292 14.9809C22.5941 13.9582 22.9091 12.0948 22.9091 9C22.9091 5.90523 22.5941 4.03978 22.3292 3.01909ZM14.7876 9.66682L10.6967 12.5305C10.5743 12.6162 10.4308 12.6668 10.2817 12.6767C10.1326 12.6867 9.98369 12.6556 9.85101 12.5869C9.71833 12.5182 9.607 12.4144 9.5291 12.2869C9.45119 12.1594 9.40969 12.0131 9.40909 11.8636V6.13637C9.40913 5.98669 9.45023 5.8399 9.52791 5.71196C9.60559 5.58402 9.71688 5.47985 9.84965 5.41077C9.98243 5.34169 10.1316 5.31036 10.281 5.32018C10.4303 5.33 10.5741 5.3806 10.6967 5.46648L14.7876 8.33012C14.8952 8.40558 14.9831 8.50586 15.0437 8.62246C15.1044 8.73907 15.136 8.86857 15.136 9C15.136 9.13144 15.1044 9.26094 15.0437 9.37754C14.9831 9.49415 14.8952 9.59443 14.7876 9.66989V9.66682Z" fill="#ec8c4c"/>
</svg>
